<svg viewBox="0 0 550 552" xmlns="http://www.w3.org/2000/svg">
    <defs>
        <linearGradient id="bg" gradientTransform="rotate(45)">
            <stop offset="20%" stop-color="#6F42C1" />
            <stop offset="100%" stop-color="#f83e5a" />
        </linearGradient>
    </defs>
    <rect width="100%" height="100%" fill="white" rx="100" />
    <g transform="scale(1.3)" fill="url(#bg)">
        <g transform="translate(-335, 616) scale(0.15,-0.15)">
            <path d="M3559 3640c-102-20-194-60-241-105-16-14-28-28-28-31 0-8 56-89 121-175 128-169 237-265 332-293 177-51 259-236 180-403-75-158-301-202-434-84-58 51-90 117-99 205-9 84-24 127-85 245-49 95-213 342-231 348-6 2-23-6-37-17-22-18-27-30-27-66 0-34-4-46-17-51-10-3-43-30-73-59-30-29-75-70-99-92-40-35-44-44-49-94-2-32 1-64 7-77 10-17 9-21-5-21-10 0-14-6-11-14 3-8 3-17-1-21-7-7-9-17-12-111-3-75 16-114 76-157 38-27 44-35 39-57-4-18-3-21 4-11 7 11 12 7 24-20 8-19 26-48 41-66 16-19 22-34 16-38-5-3-10-11-10-16 0-6 4-8 9-5 4 3 14-13 20-36 18-58 50-103 88-123 19-10 33-26 33-36 0-10 16-43 35-73 31-49 41-57 91-73 53-16 58-16 86 0 41 23 72 8 37-18l-24-17 23 7c22 6 21 5-9-47-17-29-42-67-55-85-13-17-24-34-24-36 0-7 113-45 155-51 29-5 36-4 25 3-12 8-8 11 16 11 36 0 94 36 110 68 6 13 21 34 33 48 11 13 21 29 21 34 0 22 40 8 56-18 22-39 52-56 69-42 11 9 12 7 9-8-6-22 20-47 41-38 21 8 19 55-2 63-21 8-48 33-36 33 4 0 2 4-5 8-9 6-7 18 9 51 20 43 21 43 42 25 12-10 30-28 39-39 17-20 17-20 45 3 56 44 79 53 110 40 37-15 63-18 63-5 0 5 9 7 19 4 16-4 21 2 26 25 4 17 2 35-3 40-8 8-9 4-6-13l5-24-13 25c-7 14-17 29-23 33-5 5 0 5 13 2 13-4 22-2 22 4 0 6 6 11 13 11 6 1 22 23 35 50 28 59 49 67 204 79 108 9 141 24 166 75 12 23 11 34-4 76-17 46-17 50 0 75 23 35 15 52-30 61l-37 7 31 26c36 30 39 47 15 89-17 29-17 31 10 69 15 21 27 52 27 69 0 26-8 33-73 67-73 39-127 79-127 95 0 5 12 14 26 21 15 6 24 14 21 17-3 3-17-2-32-12-23-15-28-15-36-3-7 11-23 6-89-28-44-24-84-43-89-43-5 0-11 9-14 19-4 16 7 25 57 49 33 16 78 35 99 43 57 20 57 42-2 156-57 111-90 149-168 196-51 31-64 49-43 62 12 7 13 72 2 79-5 3-7-9-5-27 3-30 3-30-11 8-20 53-79 102-146 121-30 8-74 22-96 30-65 23-132 25-235 4z m705-529c-28-24-247-91-287-88l-28 2 28 22c15 13 44 26 63 29 19 4 70 20 113 36 63 24 81 27 93 17 12-10 13-9 8 7-5 18-5 18 6 1 7-11 8-22 4-26z m5-304c-2-1-13-9-24-17-19-14-19-14-6 3 7 9 18 17 24 17 6 0 8-1 6-3z m-234-757c-3-5-12-10-18-10-7 0-6 4 3 10 19 12 23 12 15 0z" />
            <path d="M3940 2000c-12-8-11-10 8-10 12 0 22 5 22 10 0 13-11 13-30 0z" />
            <path d="M3619 1838c-20-49-59-88-88-89-54-1 14-17 80-19 122-3 175 0 159 9-26 15-97 87-109 110-16 29-26 26-42-11z" />
        </g>
    </g>
</svg>